{"title":"Nightcrawler.2014.BRRip.480p.x264.AAC-VYTO [P2PDL]","uid":11674648,"size":427755367,"categoryP":"video","categoryS":"movies","magnet":"?xt=urn:btih:3212a09af6e50df4203b683f7e8dd0b0a943f3f7&amp;dn=Nightcrawler.2014.BRRip.480p.x264.AAC-VYTO+%5BP2PDL%5D&amp;tr=udp%3A%2F%2Ftracker.openbittorrent.com%3A80&amp;tr=udp%3A%2F%2Fopen.demonii.com%3A1337&amp;tr=udp%3A%2F%2Ftracker.coppersurfer.tk%3A6969&amp;tr=udp%3A%2F%2Fexodus.desync.com%3A6969","seeders":4,"leechers":2,"uploader":"ValidusVyto","files":6,"time":1422806927,"description":"\n\nGenre: Crime | Drama | Thriller\nIMDb: http://www.imdb.com/title/tt2872718/\n\nGeneral\nFormat                      : MPEG-4\nFile size                   : 402 MiB\nOverall bit rate mode       : Variable\nOverall bit rate            : 476 Kbps\n\nVideo\nFormat                      : AVC\nBit rate                    : 433 Kbps\nWidth                       : 720 pixels\nHeight                      : 304 pixels\nDisplay aspect ratio        : 2.35:1\nFrame rate mode             : Constant\nFrame rate                  : 23.976 fps\nBit depth                   : 8 bits\nStream size                 : 366 MiB (91%)\nWriting library             : x264 core 142 r2491 24e4fed\n\nAudio\nFormat                      : AAC\nBit rate mode               : Variable\nBit rate                    : 39.9 Kbps\nChannel(s)                  : 2 channels\nChannel positions           : Front: L R\nSampling rate               : 48.0 KHz\nStream size                 : 33.7 MiB (8%)\nLanguage                    : English\n\nSubtitle                    : Yes(English)\nSource                      : 720p.BluRay.x264-SPARKS\n &lt;a href=&quot;\nhttp://someimage.com/ilxi6wE&quot; rel=&quot;nofollow&quot; target=&quot;_NEW&quot;&gt;\nhttp://someimage.com/ilxi6wE&lt;/a&gt; &lt;a href=&quot;\nhttp://someimage.com/XLUMVE5&quot; rel=&quot;nofollow&quot; target=&quot;_NEW&quot;&gt;\nhttp://someimage.com/XLUMVE5&lt;/a&gt;\n\n----------------------------------------------------------------------------------------------------\n\n\nEncoder Notes: Looking For Early Access To Anything You Can Provide DVDScr, R5, DVDR, BluRay, Direct\nAudio, Music Releases and Seedboxes. If You Got anything to offer please contact us.\n\nWe require dedicated servers, so as to do more and fast releases of movies. Support us!","torrent":{"xt":"urn:btih:3212a09af6e50df4203b683f7e8dd0b0a943f3f7","amp;dn":"Nightcrawler.2014.BRRip.480p.x264.AAC-VYTO+%5BP2PDL%5D","amp;tr":["udp%3A%2F%2Ftracker.openbittorrent.com%3A80","udp%3A%2F%2Fopen.demonii.com%3A1337","udp%3A%2F%2Ftracker.coppersurfer.tk%3A6969","udp%3A%2F%2Fexodus.desync.com%3A6969"],"infoHash":"3212a09af6e50df4203b683f7e8dd0b0a943f3f7","infoHashBuffer":{"type":"Buffer","data":[50,18,160,154,246,229,13,244,32,59,104,63,126,141,208,176,169,67,243,247]},"announce":[],"urlList":[]}}